<?xml version="1.0" encoding="UTF-8"?>
<svg width="194.74" height="194.74" version="1.1" viewBox="0 0 194.74 194.74" xml:space="preserve" xmlns="http://www.w3.org/2000/svg" xmlns:cc="http://creativecommons.org/ns#" xmlns:dc="http://purl.org/dc/elements/1.1/" xmlns:rdf="http://www.w3.org/1999/02/22-rdf-syntax-ns#"><metadata><rdf:RDF><cc:Work rdf:about=""><dc:format>image/svg+xml</dc:format><dc:type rdf:resource="http://purl.org/dc/dcmitype/StillImage"/><dc:title/></cc:Work></rdf:RDF></metadata><defs><clipPath id="clipPath18"><path d="M 0,841.89 H 595.276 V 0 H 0 Z"/></clipPath></defs><g transform="matrix(1.3333 0 0 -1.3333 -302.42 739.26)"><g clip-path="url(#clipPath18)"><g transform="translate(363.38 490.91)"><path d="m0 0c-5.243 0-9.492-4.25-9.492-9.492 0-5.243 4.249-9.492 9.492-9.492 5.242 0 9.492 4.249 9.492 9.492 0 5.242-4.25 9.492-9.492 9.492m-2.589 51.452c-7.438 7.454-17.814 12.091-29.174 12.086h-6e-3c-11.364 5e-3 -21.735-4.632-29.169-12.08-7.454-7.437-12.09-17.815-12.085-29.175v-63.539c-5e-3 -6.182-2.484-11.695-6.527-15.756-4.066-4.043-9.574-6.516-15.757-6.527-6.185 0.011-11.693 2.484-15.752 6.527-4.049 4.061-6.515 9.574-6.526 15.756 0.011 6.181 2.477 11.689 6.526 15.752 4.059 4.051 9.567 6.522 15.752 6.526h21.203v18.978h-21.203c-11.359 0.01-21.735-4.627-29.17-12.081-7.453-7.439-12.089-17.815-12.085-29.175-4e-3 -11.364 4.632-21.74 12.085-29.172 7.435-7.453 17.811-12.092 29.17-12.088h0.021c11.354 0 21.725 4.635 29.159 12.088 7.444 7.43 12.083 17.802 12.08 29.162v63.549c6e-3 6.181 2.477 11.689 6.527 15.751 4.059 4.046 9.574 6.523 15.751 6.528 0.817 0 2.477-0.146 2.477-0.146 5.174-0.57 9.768-2.881 13.28-6.382 4.051-4.057 6.522-9.565 6.528-15.751v-3.539c0-5.242 4.249-9.489 9.486-9.489 5.243 0 9.49 4.247 9.49 9.489v3.539c0.01 11.36-4.627 21.736-12.081 29.169m-23.962-51.452h-26.416v-18.978h26.416c5.243 0 9.489 4.25 9.489 9.488 0 5.243-4.246 9.49-9.489 9.49" fill="#04667c"/></g></g></g></svg>
